<svg id="Capa_1" enable-background="new 0 0 510 510" height="512" viewBox="0 0 510 510" width="512" xmlns="http://www.w3.org/2000/svg"><circle cx="199.667" cy="255" fill="#fdbf00" r="199.667"/><path d="m399.333 255c0 110.096-89.571 199.667-199.667 199.667v-399.334c110.097 0 199.667 89.571 199.667 199.667z" fill="#ff9100"/><circle cx="199.667" cy="255" fill="#ffe9cb" r="168.677"/><path d="m368.344 255c0 93.01-75.667 168.677-168.677 168.677v-337.354c93.01 0 168.677 75.667 168.677 168.677z" fill="#ffd17b"/><path d="m263.037 286.07c0 23.99-18.4 46.08-48.37 46.08v15.14c0 8.29-6.72 15-15 15s-15-6.71-15-15v-15.14c-17.57 0-32.59-4.72-44.9-19.49-5.3-6.37-4.44-15.83 1.93-21.13 6.36-5.3 15.82-4.44 21.12 1.93 4.48 5.38 11.12 8.62 17.77 8.69h36.38c8.89 0 16.07-7.2 16.07-16.08 0-8.86-7.21-16.07-16.07-16.07h-34.6c-25.41 0-46.07-20.67-46.07-46.07 0-23.42 17.81-46.07 48.37-46.07v-15.15c0-8.28 6.72-15 15-15s15 6.72 15 15v15.15c19.99 0 36.25 9.88 45.83 24.87l.18.28c4.46 6.98 2.42 16.25-4.56 20.71s-16.26 2.42-20.72-4.56l-.17-.28c-4.31-6.73-11.78-10.95-19.5-11.02h-33.36c-8.88 0-16.07 7.18-16.07 16.07 0 8.86 7.21 16.07 16.07 16.07h34.6c25.41 0 46.07 20.67 46.07 46.07z" fill="#fdbf00"/><path d="m263.037 286.07c0 23.99-18.4 46.08-48.37 46.08v15.14c0 8.29-6.72 15-15 15v-60.14h17.3c8.89 0 16.07-7.2 16.07-16.08 0-8.86-7.21-16.07-16.07-16.07h-17.3v-30h17.3c25.41 0 46.07 20.67 46.07 46.07z" fill="#ff9100"/><path d="m215.727 207.86h-16.06v-60.15c8.28 0 15 6.72 15 15v15.15c19.99 0 36.25 9.88 45.83 24.87l.18.28c4.46 6.98 2.42 16.25-4.56 20.71s-16.26 2.42-20.72-4.56l-.17-.28c-4.31-6.73-11.78-10.95-19.5-11.02z" fill="#ff9100"/><path d="m508.071 313.8-87.621 124.685c-2.088 2.98-5.341 4.46-8.584 4.46s-6.495-1.48-8.584-4.46l-87.621-124.685c-4.89-6.957.084-16.527 8.584-16.527h26.035c6.044 0 10.85-5.1 10.473-11.144l-13.307-215.33c-.367-6.034 4.428-11.134 10.483-11.134h107.874c6.055 0 10.85 5.1 10.483 11.134l-13.306 215.329c-.378 6.044 4.428 11.144 10.473 11.144h26.035c8.5 0 13.474 9.57 8.583 16.528z" fill="#ff4b00"/><path d="m508.071 313.8-87.621 124.685c-2.088 2.98-5.341 4.46-8.584 4.46v-383.28h53.937c6.055 0 10.85 5.1 10.483 11.134l-13.306 215.329c-.378 6.044 4.428 11.144 10.473 11.144h26.035c8.5 0 13.474 9.57 8.583 16.528z" fill="#f00"/></svg>