<svg id="Capa_1" data-name="Capa 1" xmlns="http://www.w3.org/2000/svg" viewBox="0 0 512 512"><defs><style>.cls-1{fill:#3681ff;}.cls-2{fill:#1070fc;}.cls-3{fill:#bed2ea;}.cls-4{fill:#a4c7ea;}.cls-5{fill:#0068e5;}.cls-6{fill:#005ebc;}.cls-7{fill:#fff;}</style></defs><circle class="cls-1" cx="256" cy="256" r="256"/><path class="cls-2" d="M512,256c0,141.38-114.62,256-256,256-6.78,0-13.51-.27-20.15-.78,132-10.28,235.84-120.63,235.84-255.22S367.81,11.06,235.85.78C242.49.27,249.22,0,256,0,397.38,0,512,114.62,512,256Z"/><circle class="cls-3" cx="256" cy="256" r="223.78"/><path class="cls-4" d="M479.78,256c0,123.59-100.19,223.78-223.78,223.78q-11.17,0-22.07-1.08c113.22-11.08,201.7-106.56,201.7-222.7S347.15,44.38,233.93,33.3q10.89-1.08,22.07-1.08C379.59,32.22,479.78,132.41,479.78,256Z"/><circle class="cls-5" cx="256" cy="256" r="187.73"/><path class="cls-6" d="M443.73,256c0,103.51-84.22,187.73-187.73,187.73a189.09,189.09,0,0,1-26.88-1.92C319.94,428.73,390,350.39,390,256s-70-172.73-160.84-185.81A189.09,189.09,0,0,1,256,68.27c103.51,0,187.73,84.22,187.73,187.73Z"/><path class="cls-7" d="M342,213.34a71.72,71.72,0,0,0-27.52-29.55,75.88,75.88,0,0,0-33.14-10.19V138H262.71v35.25H241.82V138H222.91v35.31H178.15v32.09h31.19V310.09H181.55v32.08h41.36V374h18.91V342.17H263V374h18.63V341.85a76,76,0,0,0,32.87-10.17A71.75,71.75,0,0,0,342,302.12q9.81-19,9.82-44.39T342,213.34ZM306,296q-12.66,14.11-33.9,14.12h-30V205.38h30q21.24,0,33.9,14.11t12.64,38.24Q318.62,281.87,306,296Z"/></svg>